<svg xmlns="http://www.w3.org/2000/svg" viewBox="0 0 769.00016 281.2"><path fill="#9e8dc9" d="M597.9 130.5c-13.5-36.5 5.1-77 41.6-90.6h.1L627.5 7.1c-54.6 20.1-82.6 80.8-62.5 135.4 0 .1 0 .1.1.2z" opacity=".1"/><path fill="#699bc9" d="M606.3 65.1c12-16.6 30.6-27.2 51.1-29 2.1-.2 4.1-.3 6.2-.3 14.8 0 29.2 4.7 41.2 13.3l20.5-28.4C707.4 7.7 685.8.8 663.7.8c-3.1 0-6.2.1-9.3.4-30.6 2.6-58.5 18.5-76.4 43.4z" opacity=".1"/><path fill="#7376c7" d="M663.7 17.5V35c38.7.1 70.1 31.5 70 70.3-.1 38.8-31.5 70.1-70.3 70-38.8-.1-70.1-31.5-70-70.3.1-30.6 20-57.7 49.3-66.8 6.8-2.1 13.9-3.2 21-3.2V0c-58.1.1-105.1 47.2-105 105.3.1 58.1 47.2 105.1 105.3 105 58.1-.1 105.1-47.2 105-105.3-.1-46-30-86.6-73.9-100.2C684.9 1.6 674.3 0 663.7 0z" opacity=".2"/><path fill="#b6acea" d="M662.9 79.1h-35.4v10H651c-5 6.6-8.9 13.9-11.7 21.7-2.8 7.6-4.4 15.7-4.6 23.8h10c.1-5.7.9-11.4 2.3-16.9 1.6-6.2 3.9-12.2 6.9-17.9 2.4-4.7 5.4-9 8.9-12.9l.1-7.8m40.6 0h-27.4l-5.3 29.3 8.4 1.3c2.4-2.7 5-4.1 8-4.1 2.2-.1 4.4.9 5.8 2.6 1.5 1.7 2.2 4.3 2.2 7.8 0 3.7-.7 6.4-2.2 8.3-1.3 1.7-3.3 2.7-5.5 2.7-1.9 0-3.7-.8-5-2.1-1.5-1.6-2.4-3.6-2.6-5.8l-10.3 1.1c.4 4.3 2.4 8.3 5.6 11.2 3.1 2.8 7.2 4.2 12.2 4.2 5.8.2 11.4-2.6 14.6-7.4 2.6-3.6 3.9-8 3.9-12.4 0-5.6-1.6-10.1-4.8-13.6-4.7-5.4-12.5-6.8-18.8-3.4l1.6-9.6h19.5l.1-10.1" opacity=".30199998"/><path fill="#d4d7e6" d="M501.4 36.3c.3-.5.8-.7 1.4-.7.6 0 1.1.3 1.4.8.5 1 .7 2.2.6 3.3.1 1.1-.1 2.3-.6 3.3-.5.8-1.5 1.1-2.3.6-.2-.1-.5-.3-.6-.6-.5-1-.7-2.2-.6-3.3 0-1.2.2-2.4.7-3.4zm-.9 7.4c.5.7 1.4 1.1 2.3 1 .7 0 1.3-.2 1.8-.6.5-.4.9-1 1.1-1.7.3-.9.4-1.9.4-2.8 0-.8-.1-1.6-.2-2.4-.1-.5-.3-1-.6-1.5-.2-.4-.6-.7-1-.9-.4-.2-.9-.3-1.4-.3-.7 0-1.3.2-1.8.6-.5.4-.9 1-1.1 1.7-.3.9-.4 1.9-.4 2.9-.2 1.4.1 2.8.9 4zm-7.8.3c.6.5 1.4.8 2.2.8 1 0 2-.4 2.6-1.2.5-.7.8-1.5.8-2.4 0-.9-.3-1.7-.9-2.3-.6-.6-1.4-.9-2.2-.9-.7 0-1.3.2-1.9.6l.5-2.7h4v-1.2h-5l-1 5.1 1.2.2c.2-.3.4-.5.8-.7.3-.2.7-.3 1.1-.3.6 0 1.1.2 1.5.6.4.5.6 1.1.6 1.7 0 .6-.2 1.3-.6 1.8-.4.4-.9.7-1.5.7-.5 0-.9-.2-1.3-.5-.4-.4-.6-.9-.7-1.4l-1.3.1c.2.8.5 1.5 1.1 2zm-7.2-.6c.1-.2.3-.5.5-.7.2-.2.7-.6 1.4-1.3.7-.5 1.3-1.1 1.9-1.8.3-.4.6-.8.8-1.2.2-.4.2-.8.2-1.2 0-.8-.3-1.5-.8-2-.6-.6-1.4-.8-2.3-.8-.8 0-1.6.2-2.3.7-.6.6-.9 1.3-1 2.2l1.3.1c0-.5.2-1.1.5-1.5.4-.4.9-.6 1.4-.5.5 0 1 .2 1.4.5.3.3.5.8.5 1.2 0 .5-.2 1.1-.6 1.5-.7.8-1.4 1.5-2.2 2.1-.6.5-1.1 1-1.6 1.5-.3.4-.6.8-.8 1.3-.1.3-.2.6-.1.9h6.6v-1.2zm15.9 39.9c.3-.5.8-.7 1.4-.7.6 0 1.1.3 1.4.8.5 1 .7 2.2.6 3.3.1 1.1-.1 2.3-.6 3.3-.5.8-1.5 1.1-2.3.6-.2-.1-.5-.3-.6-.6-.5-1-.7-2.2-.6-3.3 0-1.2.2-2.4.7-3.4zm-.9 7.4c.5.7 1.4 1.1 2.3 1 .7 0 1.3-.2 1.8-.6.5-.4.9-1 1.1-1.7.3-.9.4-1.9.4-2.8 0-.8-.1-1.6-.2-2.4-.1-.5-.3-1-.6-1.5-.2-.4-.6-.7-1-.9-.4-.2-.9-.3-1.4-.3-.7 0-1.3.2-1.8.6-.5.4-.9 1-1.1 1.7-.3.9-.4 1.9-.4 2.9-.2 1.4.1 2.8.9 4zm-6.9-7.4c.3-.5.8-.7 1.4-.7.6 0 1.1.3 1.4.8.5 1 .7 2.2.6 3.3.1 1.1-.1 2.3-.6 3.3-.5.8-1.5 1.1-2.3.6-.2-.1-.5-.3-.6-.6-.5-1-.7-2.2-.6-3.3 0-1.2.2-2.4.7-3.4zm-.9 7.4c.5.7 1.4 1.1 2.3 1 .7 0 1.3-.2 1.8-.6.5-.4.9-1 1.1-1.7.3-.9.4-1.9.4-2.8 0-.8-.1-1.6-.2-2.4-.1-.5-.3-1-.6-1.5-.2-.4-.6-.7-1-.9-.4-.2-.9-.3-1.4-.3-.7 0-1.3.2-1.8.6-.5.4-.9 1-1.1 1.7-.3.9-.4 1.9-.4 2.9-.2 1.4.2 2.8.9 4zm-7.2-.3c.1-.2.3-.5.5-.7.2-.2.7-.6 1.4-1.3.7-.5 1.3-1.1 1.9-1.8.3-.4.6-.8.8-1.2.2-.4.2-.8.2-1.2 0-.8-.3-1.5-.8-2-.6-.6-1.4-.8-2.3-.8-.8 0-1.6.2-2.3.7-.6.6-.9 1.3-1 2.2l1.3.1c0-.5.2-1.1.5-1.5.4-.4.9-.6 1.4-.5.5 0 1 .2 1.4.5.3.3.5.8.5 1.2 0 .5-.2 1.1-.6 1.5-.7.8-1.4 1.5-2.2 2.1-.6.5-1.1 1-1.6 1.5-.3.4-.6.8-.8 1.3-.1.3-.2.6-.1.9h6.6v-1.2zm15.9 39.9c.3-.5.8-.7 1.4-.7.6 0 1.1.3 1.4.8.8 2.1.8 4.4 0 6.6-.5.8-1.5 1.1-2.3.6-.2-.1-.5-.3-.6-.6-.5-1-.7-2.2-.6-3.3 0-1.2.2-2.4.7-3.4zm-.9 7.4c.5.7 1.4 1.1 2.3 1 .7 0 1.3-.2 1.8-.6.5-.4.9-1 1.1-1.7.3-.9.4-1.9.4-2.8 0-.8-.1-1.6-.2-2.4-.1-.5-.3-1-.6-1.5-.2-.4-.6-.7-1-.9-.4-.2-.9-.3-1.4-.3-.7 0-1.3.2-1.8.6-.5.4-.9 1-1.1 1.7-.3.9-.4 1.9-.4 2.9-.2 1.4.1 2.8.9 4zm-7.8.3c.6.5 1.4.8 2.2.8 1 0 2-.4 2.6-1.2.5-.7.8-1.5.8-2.4 0-.9-.3-1.7-.9-2.3-.6-.6-1.4-.9-2.2-.9-.7 0-1.3.2-1.9.6l.5-2.7h4v-1.2h-5l-1 5.1 1.2.1c.2-.3.4-.5.8-.7.3-.2.7-.3 1.1-.3.6 0 1.1.2 1.5.6.4.5.6 1.1.6 1.7 0 .6-.2 1.3-.6 1.8-.4.4-.9.7-1.5.7-.5 0-.9-.2-1.3-.5-.4-.4-.6-.9-.7-1.4l-1.3.1c.2.9.5 1.6 1.1 2.1zm-4.1-9.5h-.8c-.3.5-.6 1-1.1 1.3-.5.5-1.1.9-1.8 1.2v1.2c.5-.2.9-.4 1.3-.6.4-.2.8-.5 1.2-.8v7.8h1.2zm12.8 48.8c.3-.5.8-.7 1.4-.7.6 0 1.1.3 1.4.8.8 2.1.8 4.4 0 6.6-.5.8-1.5 1.1-2.3.6-.2-.1-.5-.3-.6-.6-.5-1-.7-2.2-.6-3.3 0-1.2.2-2.4.7-3.4zm-.9 7.4c.5.7 1.4 1.1 2.3 1 .7 0 1.3-.2 1.8-.6.5-.4.9-1 1.1-1.7.3-.9.4-1.9.4-2.8 0-.8-.1-1.6-.2-2.4-.1-.5-.3-1-.6-1.5-.2-.4-.6-.7-1-.9-.4-.2-.9-.3-1.4-.3-.7 0-1.3.2-1.8.6-.5.4-.9 1-1.1 1.7-.3.9-.4 1.9-.4 2.9-.2 1.4.1 2.8.9 4zm-6.9-7.4c.3-.5.8-.7 1.4-.7.6 0 1.1.3 1.4.8.8 2.1.8 4.4 0 6.6-.5.8-1.5 1.1-2.3.6-.2-.1-.5-.3-.6-.6-.5-1-.7-2.2-.6-3.3 0-1.2.2-2.4.7-3.4zm-.9 7.4c.5.7 1.4 1.1 2.3 1 .7 0 1.3-.2 1.8-.6.5-.4.9-1 1.1-1.7.3-.9.4-1.9.4-2.8 0-.8-.1-1.6-.2-2.4-.1-.5-.3-1-.6-1.5-.2-.4-.6-.7-1-.9-.4-.2-.9-.3-1.4-.3-.7 0-1.3.2-1.8.6-.5.4-.9 1-1.1 1.7-.3.9-.4 1.9-.4 2.9-.2 1.4.2 2.8.9 4zm-4.1-9.1h-.8c-.3.5-.6 1-1.1 1.3-.5.5-1.1.9-1.8 1.2v1.2c.5-.2.9-.4 1.3-.6.4-.2.8-.5 1.2-.8v7.8h1.2zm13.5 48.7c.3-.5.8-.7 1.4-.7.6 0 1.1.3 1.4.8.8 2.1.8 4.4 0 6.6-.5.8-1.5 1.1-2.3.6-.2-.1-.5-.3-.6-.6-.5-1-.7-2.2-.6-3.3 0-1.2.2-2.4.7-3.4zm-.9 7.4c.5.7 1.4 1.1 2.3 1 .7 0 1.3-.2 1.8-.6.5-.4.9-1 1.1-1.7.3-.9.4-1.9.4-2.8 0-.8-.1-1.6-.2-2.4-.1-.5-.3-1-.6-1.5-.2-.4-.6-.7-1-.9-.4-.2-.9-.3-1.4-.3-.7 0-1.3.2-1.8.6-.5.4-.9 1-1.1 1.7-.3.9-.4 1.9-.4 2.9-.2 1.4.1 2.8.9 4zm-7.8.3c.6.5 1.4.8 2.2.8 1 0 2-.4 2.6-1.2.5-.7.8-1.5.8-2.4 0-.9-.3-1.7-.9-2.3-.6-.6-1.4-.9-2.2-.9-.7 0-1.3.2-1.9.6l.5-2.7h4v-1.2h-5l-1 5.1 1.2.1c.2-.3.4-.5.8-.7.3-.2.7-.3 1.1-.3.6 0 1.1.2 1.5.6.4.5.6 1.1.6 1.7 0 .6-.2 1.3-.6 1.8-.4.4-.9.7-1.5.7-.5 0-.9-.2-1.3-.5-.4-.4-.6-.9-.7-1.4l-1.3.1c.2.9.5 1.6 1.1 2.1z"/><g opacity=".5"><path fill="#b6c2f6" d="M62.1 81.2h35.5c1.9 0 3.5 1.6 3.5 3.5v193c0 1.9-1.6 3.5-3.5 3.5H62.1c-1.9 0-3.5-1.6-3.5-3.5v-193c0-2 1.6-3.5 3.5-3.5zm58.6-50.6h35.5c1.9 0 3.5 1.6 3.5 3.5v243.6c0 1.9-1.6 3.5-3.5 3.5h-35.5c-1.9 0-3.5-1.6-3.5-3.5V34.1c0-1.9 1.6-3.5 3.5-3.5zm58.6 15.1h35.5c1.9 0 3.5 1.6 3.5 3.5v228.5c0 1.9-1.6 3.5-3.5 3.5h-35.5c-1.9 0-3.5-1.6-3.5-3.5V49.2c0-1.9 1.6-3.5 3.5-3.5zm58.6 97.8h35.5c1.9 0 3.5 1.6 3.5 3.5v130.7c0 1.9-1.6 3.5-3.5 3.5h-35.5c-1.9 0-3.5-1.6-3.5-3.5V147c0-1.9 1.5-3.5 3.5-3.5zm58.6-34.4H332c1.9 0 3.5 1.6 3.5 3.5v165c0 1.9-1.6 3.5-3.5 3.5h-35.5c-1.9 0-3.5-1.6-3.5-3.5v-165c0-1.9 1.5-3.5 3.5-3.5zM355.1 72h35.5c1.9 0 3.5 1.6 3.5 3.5v202.2c0 1.9-1.6 3.5-3.5 3.5h-35.5c-1.9 0-3.5-1.6-3.5-3.5V75.5c0-1.9 1.5-3.5 3.5-3.5zm58.6 63.5h35.5c1.9 0 3.5 1.6 3.5 3.5v138.7c0 1.9-1.6 3.5-3.5 3.5h-35.5c-1.9 0-3.5-1.6-3.5-3.5V139c0-2 1.5-3.5 3.5-3.5zM3.5 159H39c1.9 0 3.5 1.6 3.5 3.5v115.2c0 1.9-1.6 3.5-3.5 3.5H3.5c-1.9 0-3.5-1.6-3.5-3.5V162.5c0-1.9 1.6-3.5 3.5-3.5z" class="st6"/><path fill="#a4a5f5" d="M62.1 137.5h35.5c1.9 0 3.5 1.6 3.5 3.5v136.7c0 1.9-1.6 3.5-3.5 3.5H62.1c-1.9 0-3.5-1.6-3.5-3.5V141c0-1.9 1.6-3.5 3.5-3.5zm58.6-19.2h35.5c1.9 0 3.5 1.6 3.5 3.5v155.8c0 1.9-1.6 3.5-3.5 3.5h-35.5c-1.9 0-3.5-1.6-3.5-3.5V121.8c0-1.9 1.6-3.5 3.5-3.5zm58.6 37.8h35.5c1.9 0 3.5 1.6 3.5 3.5v118c0 1.9-1.6 3.5-3.5 3.5h-35.5c-1.9 0-3.5-1.6-3.5-3.5v-118c0-1.9 1.6-3.5 3.5-3.5zm58.6 39.2h35.5c1.9 0 3.5 1.6 3.5 3.5v78.8c0 1.9-1.6 3.5-3.5 3.5h-35.5c-1.9 0-3.5-1.6-3.5-3.5v-78.8c0-1.9 1.5-3.5 3.5-3.5zm58.6-22.3H332c1.9 0 3.5 1.6 3.5 3.5v101.2c0 1.9-1.6 3.5-3.5 3.5h-35.5c-1.9 0-3.5-1.6-3.5-3.5V176.5c0-1.9 1.5-3.5 3.5-3.5zm58.6-21.5h35.5c1.9 0 3.5 1.6 3.5 3.5v122.7c0 1.9-1.6 3.5-3.5 3.5h-35.5c-1.9 0-3.5-1.6-3.5-3.5V155c0-1.9 1.5-3.5 3.5-3.5zm58.6 25h35.5c1.9 0 3.5 1.6 3.5 3.5v97.7c0 1.9-1.6 3.5-3.5 3.5h-35.5c-1.9 0-3.5-1.6-3.5-3.5V180c0-1.9 1.5-3.5 3.5-3.5zM3.5 198.2H39c1.9 0 3.5 1.6 3.5 3.5v76c0 1.9-1.6 3.5-3.5 3.5H3.5c-1.9 0-3.5-1.6-3.5-3.5v-76c0-2 1.6-3.5 3.5-3.5z" class="st7"/></g></svg>