<svg xmlns="http://www.w3.org/2000/svg" width="1187.873" height="291.29773"><defs><clipPath id="b"><path fill="none" d="M467.56 165.167h236.75v46H467.56z"/></clipPath><linearGradient id="c" x1="585.935" x2="585.935" y1="211.16701" y2="165.16701" gradientUnits="userSpaceOnUse"><stop offset="0" stop-color="#64859e" stop-opacity=".7"/><stop offset=".333" stop-color="#536f83" stop-opacity=".754"/><stop offset=".975" stop-color="#27343e" stop-opacity=".894"/><stop offset="1" stop-color="#25323b" stop-opacity=".9"/></linearGradient><clipPath id="d"><path fill="none" d="M490.567.064h694.653v177.92H490.567z"/></clipPath><filter id="a" width="1.6234235" height="4.2085977" x="-.31171173" y="-1.6042989" color-interpolation-filters="sRGB"><feGaussianBlur stdDeviation="30.749063"/></filter></defs><rect width="236.75" height="46" x="471.168" y="171.5" filter="url(#a)" opacity=".6800001" rx="12" ry="12"/><path fill="#fff" d="M3.9 4.667l109.5 167.667a9.542 9.542 0 0 0 8.375 5.542c6.125.125 944.375.124 944.375.124s9.75 1 16.5-9.25S1186.4 7 1186.4 7s5.75-7-5.5-7H3.9s-1.178 2.863 0 4.667"/><rect width="236.75" height="46" x="475.56152" y="167.5" fill="#91adc6" rx="12" ry="12"/><g clip-path="url(#b)" opacity=".4" transform="translate(8.0015247)"><rect width="236.75" height="46" x="467.56" y="165.16701" fill="url(#c)" rx="12" ry="12"/></g><path fill="#eef4f9" d="M.524 4.667l109.5 167.667a9.542 9.542 0 0 0 8.375 5.542c6.125.125 944.375.124 944.375.124s9.75 1 16.5-9.25S1185.024 7 1185.024 7s3.75-7-7.5-7H.524s-1.179 2.863 0 4.667"/><g clip-path="url(#d)" opacity=".3"><path fill="#baced8" d="M835.327 111l-39.7 22.5-305.057 44.48s13-.115 16.625 0 558.168-1.39 558.168-1.39 7.385.8 13.25-8.755c5.9-9.616 106.4-162.083 106.4-162.083s1.815-5.679-5.2-5.685c-4.243 0-71.756 34.451-285.874 34.52-139.583.044-35.607 65.353-35.607 65.353s-23.786 9.17-23 11.063"/></g><path fill="#818af4" d="M384.749 160.667L362.146 131s48.4-25.547 77.2-28.667c22.7-2.459 22.7-2.4 22.7-2.4s46.673 18.729 69.8 25.563A281.4 281.4 0 0 0 619.982 137c34.1-1.167 62.613-4.5 65.743-6.5 0 0 48.163 7.167 69.723 9.167 21.56 2 77.547 4 89.892 3.833 12.345-.167 75.635 2.667 107.975-4.833 32.34-7.5 42.235-5.861 60.16-10 19.772-4.566 53.9-14.167 72.506-11.667l-28.342 43z"/><path fill="#cdadec" d="M493.159 99.979s58.167-6 103.167 2.667 99.9 28.521 105.9 29.521c0 0-61.532 11.706-109.237 4.313-43.356-6.72-91.667-30.334-99.834-36.5"/><path fill="#c6c7f9" d="M391.421 160.667l-266.554-.87-14.633-26.667a70.925 70.925 0 0 0 30.807-9s131.855 8.333 153.419 8.333c21.564 0 75.4-1.463 75.4-1.463a71.89 71.89 0 0 1 8.586 9.708c2.219 2.981 11.352 14.032 12.978 19.959"/><path fill="#cdadec" d="M462.047 99.874s71.11-4.995 127.673 3.672 112.56 29.317 120.1 30.317c0 0-70.85 7.379-125.04 4.984-58.563-2.589-112.469-32.806-122.735-38.973"/><path fill="#8fb1ff" d="M709.521 133.958s33.881-10.586 55.631-26.336c21.75-15.75 53.25-36 63.5-43s69.667-45.467 80.917-46.717l232.217 2.032a81.225 81.225 0 0 1-6.857 11.9c-5 7.5-50.57 87.618-50.57 87.618s-11.77-.965-39.27 6.035c-27.5 7-78.14 14.686-86.936 16.629-22.314 4.929-74.75 5.75-104 4.75s-80.683-1.879-83.022-1.545c-2.339.334-48.11-3.87-61.61-11.37"/><path fill="#a1c6ff" d="M137.889 122.522s34.75-23.743 44-34.476c9.092-10.548 35.81-30.835 44.677-34.772.154-.069.3-.133.448-.192 8.375-3.415 63 0 63 0s44.5 40.656 58.125 60.17c13.625 19.514 15.625 18.7 15.625 18.7l-209.625 2.765-8-12.034z"/><path fill="#8db5ff" d="M245.309 56.406s76-7 125 8.333S431.7 83.4 462.368 100.065c0 0-23.393.34-56.393 13.007a444.576 444.576 0 0 0-61.413 29s-42.253-61.333-99.253-85.666"/><path fill="#f9d7ef" d="M101.671 121.134l8.583 12.333a50.649 50.649 0 0 0 19.833-3.5c10-4.083 12.417-5.5 12.417-5.5s-24.083-5.583-40.833-3.333"/><path fill="#fff" d="M71.313 26.084l19.232 34 276.309-.25-8.171-33.75zm26.5 45.929l18.246 34 262.129-.25-7.752-33.75zm26.9 47.41l17.379 34 249.662-.25-7.383-33.75z"/><path fill="#dfe8ef" d="M231.678 126.252a1.5 1.5 0 0 1-1.5 1.5h-66.333a1.5 1.5 0 0 1 0-3h66.333a1.5 1.5 0 0 1 1.5 1.5m16 4.417a1.417 1.417 0 0 1-1.417 1.417h-79.667a1.417 1.417 0 1 1 0-2.834h79.667a1.418 1.418 0 0 1 1.417 1.417"/><path fill="#e5d7f9" d="M210.768 148.452l-14.571.002-6.22-9.45 15.334-.075zm-23.883.004l-14.228.002-6.657-9.336 14.966-.074zm49.408-.008l-14.94.002-4.758-6.435 15.622-.052zm26.457-.312l-15.343.004-5.635-11.323 16.226-.095zm26.806.616h-15.718l-5.475-14.068 16.735-.114zm28.331 0h-14.141l-3.961-12.441 15.011-.089zm28.116 0h-14.794l-3.426-16.691 15.863-.122z"/><path fill="#bdd8ff" d="M170.305 102.425l-12.173-.054-4.404-6.265 12.633-.033zm23.576.106l-12.379-.056-5.061-9.199 12.912-.073zm25.317-.247l-12.546-.051-4.099-7.053 13.05-.045zm26.111.477l-13.229-.06-4.961-12.213 13.882-.114zm29.441.131l-14.03-.062-4.851-14.867 14.801-.156zm30.985.139l-14.898-.067-3.971-12.967 15.676-.129zm33.35.149l-15.863-.071-3.28-11.135 16.646-.101z"/><path fill="#dae4ec" d="M219.521 78.347a1.5 1.5 0 0 1-1.5 1.5H148.54a1.5 1.5 0 0 1 0-3h69.481a1.5 1.5 0 0 1 1.5 1.5m16.519 5.5a1.656 1.656 0 0 1-1.776 1.5h-82.281a1.521 1.521 0 1 1 0-3h82.281a1.655 1.655 0 0 1 1.776 1.5m6.969-47.763c0 .828-1.166 1.5-2.6 1.5H119.72c-1.439 0-2.6-.672-2.6-1.5s1.167-1.5 2.6-1.5h120.685c1.437 0 2.6.672 2.6 1.5m-14.33 6.834c0 .828-.985 1.5-2.2 1.5H124.484c-1.216 0-2.2-.672-2.2-1.5s.987-1.5 2.2-1.5h101.99c1.217 0 2.2.671 2.2 1.5m-73.665 7.166c0 .828-.291 1.5-.649 1.5h-30.1c-.359 0-.65-.672-.65-1.5s.291-1.5.65-1.5h30.1c.358 0 .649.672.649 1.5m161.333-7.166a1.526 1.526 0 0 1-1.551 1.5h-71.834a1.5 1.5 0 1 1 0-3h71.834a1.525 1.525 0 0 1 1.551 1.5m-5.667 7.166c0 .828-1.333 1.5-2.977 1.5H169.819c-1.645 0-2.978-.672-2.978-1.5s1.333-1.5 2.978-1.5H307.7c1.645 0 2.977.672 2.977 1.5"/><path fill="#fff" d="M412.625 37.895l6.333 33.5 626.667.333 18.167-33.833z"/><path fill="#c6d4e1" d="M702.043 47.124a1.376 1.376 0 0 1-1.375 1.375h-237.5a1.375 1.375 0 0 1 0-2.75h237.5a1.375 1.375 0 0 1 1.375 1.375m-112.5 7.5c0 .759-.318 1.375-.713 1.375H465.754c-.393 0-.713-.616-.713-1.375s.319-1.375.713-1.375H588.83c.394 0 .713.615.713 1.375m-37.25 6.5c0 .759-.224 1.375-.5 1.375h-86.251c-.276 0-.5-.616-.5-1.375s.224-1.375.5-1.375h86.251c.276 0 .5.615.5 1.375m238-6.5A1.255 1.255 0 0 1 789.21 56H602.374a1.415 1.415 0 0 1 0-2.75H789.21a1.255 1.255 0 0 1 1.082 1.375m23.501 6.499a1.408 1.408 0 0 1-1.437 1.375H563.981a1.376 1.376 0 1 1 0-2.75h248.375a1.407 1.407 0 0 1 1.437 1.375m72.5-14c0 .759-.418 1.375-.934 1.375H723.978c-.517 0-.935-.616-.935-1.375s.418-1.375.935-1.375h161.38c.515 0 .934.615.934 1.375m128.334 7.5a1.3 1.3 0 0 1-1.213 1.376H804.074a1.386 1.386 0 0 1 0-2.75h209.34a1.3 1.3 0 0 1 1.212 1.375m-24 7.875c0 .759-.423 1.375-.945 1.375H826.473c-.522 0-.945-.616-.945-1.375s.423-1.375.945-1.375h163.208c.522 0 .945.615.945 1.375"/><path fill="none" stroke="#e5d7f9" stroke-miterlimit="10" d="M431.866 80.13h612.687m-605.501 51h577m-574.5 18h563.5"/><path fill="none" stroke="#678699" stroke-miterlimit="10" d="M39.692 12.533l86.342 146.457s16.838.033 22.608.136c5.77.103 910.162.082 910.162.082l83.388-139.519s-1103.61-8.643-1102.5-7.156z"/><path fill="none" d="M0 0h1187.873v258H0z"/></svg>