<?xml version="1.0" encoding="UTF-8" standalone="no"?>
<svg
   xmlns:dc="http://purl.org/dc/elements/1.1/"
   xmlns:cc="http://creativecommons.org/ns#"
   xmlns:rdf="http://www.w3.org/1999/02/22-rdf-syntax-ns#"
   xmlns:svg="http://www.w3.org/2000/svg"
   xmlns="http://www.w3.org/2000/svg"
   xmlns:sodipodi="http://sodipodi.sourceforge.net/DTD/sodipodi-0.dtd"
   xmlns:inkscape="http://www.inkscape.org/namespaces/inkscape"
   width="344.59299"
   height="476.93527"
   version="1.1"
   id="svg2098"
   sodipodi:docname="phone.svg"
   inkscape:version="0.92.3 (2405546, 2018-03-11)">
  <metadata
     id="metadata2102">
    <rdf:RDF>
      <cc:Work
         rdf:about="">
        <dc:format>image/svg+xml</dc:format>
        <dc:type
           rdf:resource="http://purl.org/dc/dcmitype/StillImage" />
        <dc:title></dc:title>
      </cc:Work>
    </rdf:RDF>
  </metadata>
  <sodipodi:namedview
     pagecolor="#ffffff"
     bordercolor="#666666"
     borderopacity="1"
     objecttolerance="10"
     gridtolerance="10"
     guidetolerance="10"
     inkscape:pageopacity="0"
     inkscape:pageshadow="2"
     inkscape:window-width="1920"
     inkscape:window-height="1028"
     id="namedview2100"
     showgrid="false"
     inkscape:zoom="1.2928565"
     inkscape:cx="281.44571"
     inkscape:cy="76.921808"
     inkscape:window-x="-8"
     inkscape:window-y="-8"
     inkscape:window-maximized="1"
     inkscape:current-layer="svg2098"
     fit-margin-top="0"
     fit-margin-left="0"
     fit-margin-right="0"
     fit-margin-bottom="0" />
  <defs
     id="defs2004">
    <clipPath
       id="b">
      <path
         d="M 74.943001,142.326 H 105.479 v 31.661 H 74.943001 Z"
         id="path1983"
         inkscape:connector-curvature="0"
         style="fill:none" />
    </clipPath>
    <clipPath
       id="c">
      <path
         d="M 7.533,11.124 H 110.077 V 233.65099 H 7.533 Z"
         id="path1986"
         inkscape:connector-curvature="0"
         style="fill:none" />
    </clipPath>
    <clipPath
       id="d">
      <path
         d="M 110.077,11.124 56.277,215.083 51.33,233.651 8.351,57.471 C 8.186,56.156 5.251,47.344 11.622,41.112 17.993,34.88 21.174,35.427 27.909,33.506 72.168,20.884 110.077,11.124 110.077,11.124"
         id="path1989"
         inkscape:connector-curvature="0"
         style="fill:none" />
    </clipPath>
    <linearGradient
       id="e"
       x1="7.533"
       x2="8.533"
       y1="401.85199"
       y2="401.85199"
       gradientTransform="matrix(-2.585,109.445,-102.814,-6.662,41395.594,1878.677)"
       gradientUnits="userSpaceOnUse">
      <stop
         offset="0"
         stop-color="#fff"
         id="stop1992" />
      <stop
         offset=".05"
         stop-color="#fff"
         id="stop1994" />
      <stop
         offset=".945"
         stop-color="#ededed"
         id="stop1996" />
      <stop
         offset="1"
         stop-color="#ededed"
         id="stop1998" />
    </linearGradient>
    <filter
       id="a"
       width="1.5383162"
       height="1.3411074"
       x="-0.26915807"
       y="-0.17055371"
       style="color-interpolation-filters:sRGB">
      <feGaussianBlur
         stdDeviation="25.88393"
         id="feGaussianBlur2001" />
    </filter>
  </defs>
  <rect
     width="159.815"
     height="349.24799"
     x="72.304001"
     y="40.341"
     rx="32.369999"
     ry="32.369999"
     transform="matrix(0.92517825,-0.24106034,0.25010003,0.89173833,-22.289028,83.467281)"
     id="rect2006"
     style="opacity:0.14299999;filter:url(#a)" />
  <path
     d="m 127.35619,48.626351 38.611,-9.447 a 42.346,42.346 0 0 1 13.865,-1.719 c 6.939,0.49 12.506,2.729 16.556,17.182 4.05,14.453 75.145,289.946999 75.145,289.946999 0,0 1.306,17.611 -9.343,21.074 -10.649,3.463 -124.487,32.946 -124.487,32.946 0,0 -25.557,9.856 -31.649,-12.589 -6.092004,-22.445 -71.786009,-292.914999 -71.786009,-292.914999 0,0 -5.457,-16.111 13.4,-22.316 6.376,-2.1 79.688009,-22.167 79.688009,-22.167"
     id="path2008"
     inkscape:connector-curvature="0"
     style="fill:#fdfeff" />
  <path
     d="m 126.94219,50.626351 38.611,-9.447 a 42.346,42.346 0 0 1 13.865,-1.719 c 6.939,0.49 12.506,2.731 16.557,17.182 4.051,14.451 75.144,289.946999 75.144,289.946999 0,0 1.306,17.611 -9.343,21.074 -10.649,3.463 -124.488,32.947 -124.488,32.947 0,0 -25.558,9.856 -31.65,-12.589 -6.092004,-22.445 -71.784009,-292.916998 -71.784009,-292.916998 0,0 -5.457,-16.115001 13.4,-22.315001 6.375,-2.1 79.688009,-22.166 79.688009,-22.166"
     id="path2010"
     inkscape:connector-curvature="0"
     style="fill:#d3ddea" />
  <path
     d="m 127.13319,58.404351 34.714,-8.493 a 35.729,35.729 0 0 1 12.488,-1.448 c 6.271,0.567 11.326,2.791 15.188,16.681 3.862,13.89 71.94,278.588999 71.94,278.588999 0,0 1.429,16.875 -8.133,20.038 -9.562,3.163 -111.887,29.765 -111.887,29.765 0,0 -22.926,9.07 -28.744,-12.5 -5.818,-21.57 -68.100009,-278.334 -68.100009,-278.334 0,0 -5.963,-19.182999 10.952,-23.812999 16.915,-4.63 71.582009,-20.481 71.582009,-20.481"
     id="path2012"
     inkscape:connector-curvature="0"
     style="fill:#ecf2ff" />
  <path
     d="m 91.317181,293.97835 c 0,0 11.824009,-0.072 17.756009,-0.15 5.932,-0.078 17.528,-2.391 23.074,-8.016 5.546,-5.625 10.3,-6.748 12.67,-11.095 2.37,-4.347 2,-3.587 2,-3.587 a 55.869,55.869 0 0 0 10.721,3.5 c 5.661,1.164 14.275,2.978 21.279,-0.389 7.004,-3.367 12.9,-11.98 14.859,-18.584 1.959,-6.604 8.133,-26.606 8.748,-28.586 0.615,-1.98 6.11,-22.31 8.082,-27.323 1.972,-5.013 5.463,-15.18 8.921,-18.621 l 40.872,160.123 c 0,0 2.542,8.305 0,13.9 -2.542,5.595 -3.542,7.347 -8.542,9.035 -5,1.688 -111.812,29.812 -111.812,29.812 0,0 -12.562,4.813 -22.313,-3.25 a 30.571,30.571 0 0 1 -6.628,-14.358 c -1.375,-8.576 -19.687009,-82.412 -19.687009,-82.412"
     id="path2014"
     inkscape:connector-curvature="0"
     style="fill:#a59bf2" />
  <path
     stroke-miterlimit="10"
     d="m 104.87918,70.783352 19.375,-5.75"
     id="path2016"
     inkscape:connector-curvature="0"
     style="fill:none;stroke:#6f7e87;stroke-miterlimit:10" />
  <path
     d="m 146.81319,271.13135 c 0,0 5.048,-9.888 6.161,-16.891 1.113,-7.003 4.1,-21.393 5.392,-33.686 1.292,-12.293 1.928,-23.132 3.209,-34.138 a 126.638,126.638 0 0 1 6.477,-27.5 c 2.488,-7.014 5.607,-10.922 10.2,-12.456 4.593,-1.534 10.415,-1.665 20.076,7.713 9.661,9.378 19.086,22.536 19.086,22.536 l 1.233,4.762 c 0,0 -8.182,15.354 -11.424,28.762 -3.242,13.408 -9.283,29.79 -12.12,40.779 -3.334,12.915 -11.119,23.26 -21.856,25.009 -10.737,1.749 -26.437,-4.887 -26.437,-4.887"
     id="path2018"
     inkscape:connector-curvature="0"
     style="fill:#a2beff" />
  <path
     d="m 82.256181,253.18935 9.621,40.781 c 0,0 8.933009,0.024 14.600009,-0.024 5.667,-0.048 17.326,-1.9 22.506,-5.83 5.18,-3.93 15.429,-10.3 17.828,-16.988 0,0 -10.945,-9.044 -16.286,-10.837 -5.341,-1.793 -19.853,-13.043 -48.271009,-7.1"
     id="path2020"
     inkscape:connector-curvature="0"
     style="fill:#dabaee" />
  <path
     d="m 116.05119,347.6484 11.13376,-2.88312 7.45811,28.80102 -11.13376,2.88311 z m 18.07485,-13.97897 10.40674,-2.69486 9.71426,37.51364 -10.40674,2.69485 z m 20.65173,3.94726 10.89083,-2.82 7.45735,28.80018 -10.89083,2.82 z m 14.17509,-24.37309 11.858,-3.07475 12.48775,48.15993 -11.858,3.07475 z m 18.49724,-13.01193 9.43867,-2.44418 14.47751,55.90792 -9.43867,2.44417 z m 20.64102,2.91888 10.64867,-2.75789 12.47372,48.16292 -10.64867,2.7579 z m 21.87716,5.69889 9.92262,-2.56986 9.71582,37.51427 -9.92262,2.56986 z"
     id="path2022"
     inkscape:connector-curvature="0"
     style="fill:#f6f6ff" />
  <path
     stroke-miterlimit="10"
     d="m 165.63618,380.29034 55.907,-14.137"
     id="path2024"
     inkscape:connector-curvature="0"
     style="fill:none;stroke:#e6e6e6;stroke-miterlimit:10" />
  <path
     stroke-miterlimit="10"
     d="m 165.44117,379.54034 55.90801,-14.137"
     id="path2026"
     inkscape:connector-curvature="0"
     style="fill:none;stroke:#b3b3b3;stroke-miterlimit:10" />
  <path
     stroke-miterlimit="10"
     d="M 101.27819,307.60534 236.87918,271.44933 M 87.760184,260.43136 223.35917,224.27535 m -148.068987,-14.014 135.599007,-36.157"
     id="path2028"
     inkscape:connector-curvature="0"
     style="fill:none;stroke:#e6e6e6;stroke-miterlimit:10" />
  <path
     d="M 51.657915,105.37473 181.86706,71.656715 196.03122,126.35454 65.822071,160.07256 Z"
     id="path2030"
     inkscape:connector-curvature="0"
     style="fill:#ffffff" />
  <path
     d="m 128.31824,109.19496 36.69078,-9.501178 1.98467,7.664198 -36.69078,9.50118 z"
     id="path2032"
     inkscape:connector-curvature="0"
     style="fill:#cfdbe7" />
  <path
     d="m 72.372198,138.14551 14.844369,-3.84399 1.838267,7.09885 -14.844369,3.84399 z m -5.071017,-12.85916 52.953009,-13.716 1.142,7.365 -52.235009,13.53 z"
     id="path2034"
     inkscape:connector-curvature="0"
     style="fill:#f0f5f9" />
  <path
     d="m 120.25419,111.57035 0.455,-0.189 1.602,7.246 -3.166,0.82 z"
     id="path2036"
     inkscape:connector-curvature="0"
     style="fill:#cfdbe7" />
  <path
     d="M 61.813335,112.25691 110.67349,99.603532 112.32386,105.9763 63.4637,118.62968 Z"
     id="path2038"
     inkscape:connector-curvature="0"
     style="fill:#f0f5f9" />
  <path
     d="m 110.61518,99.576352 2.976,-0.77 1.17401,6.495998 -4.393,1.138 z"
     id="path2040"
     inkscape:connector-curvature="0"
     style="fill:#cfdbe7" />
  <path
     d="m 90.921688,133.12634 27.711942,-7.17609 1.9428,7.50254 -27.71194,7.17608 z"
     id="path2042"
     inkscape:connector-curvature="0"
     style="fill:#ecf2f7" />
  <path
     d="m 160.95118,114.94635 -42.58399,11.03 -2.423,8.634 46.94999,-12.162 z"
     id="path2044"
     inkscape:connector-curvature="0"
     style="fill:#cfdbe7" />
  <path
     d="m 75.488181,199.10735 c -0.609,-4.707 0.243,-13.844 2.4,-18.788 2.41,-5.527 3.081,-7.383 9.333,-13.651 6.252,-6.268 15.785009,-9.684 20.620009,-10.463 4.835,-0.779 6.73,2.389 6.73,2.389 l -0.142,8.258 a 34.682,34.682 0 0 0 -15.139004,4.7 c -7.449005,4.469 -12.300005,16.658 -12.100005,25.085 0.2,8.427 -2.692,9.047 -2.692,9.047 0,0 -3.274,6.606 -4.61,5.76 -1.542,-0.976 -4.166,-10.525 -4.4,-12.333"
     id="path2046"
     inkscape:connector-curvature="0"
     style="fill:#dde8ff" />
  <path
     d="m 95.603181,215.58235 c 0,0 -4.289,-4.1 -5.074,-8.456 -0.785,-4.356 -5.724,-10.537 -9.566,-8.637 -3.589,1.774 -5.589,5.171 -0.745,14.074 4.844,8.903 11.683,12.275 14.083,14.064 2.4,1.789 5.890009,-5.126 5.890009,-5.126 l 0.856,-1.513 z"
     id="path2048"
     inkscape:connector-curvature="0"
     style="fill:#e8cef7" />
  <path
     d="m 106.48819,156.45935 c 0,0 -8.687004,1.691 -7.248004,6.913 1.439004,5.222 6.367004,4.807 12.178004,4.637 5.811,-0.17 14.866,1.188 21.316,7.544 7.688,7.576 9.165,15.336 6.988,24.131 -2.3,9.293 -8.662,16.577 -18.127,19.416 a 25.224,25.224 0 0 1 -17.914,-0.945 c -1.537,-0.7 -7.875009,-4.481 -8.272009,-4.766 -0.397,-0.285 -5.122,-5.323 -9.832,-1.069 -4.71,4.254 1.886,9.519 2.268,10 0.382,0.481 14.053009,10.8 25.554009,9.92 14.629,-1.116 20.482,-5.262 27.856,-11.6 6.831,-5.876 11.247,-17.645 10.962,-24.479 -0.285,-6.834 -0.891,-17.4 -8.976,-26.922 a 38.761,38.761 0 0 0 -36.753,-12.78"
     id="path2050"
     inkscape:connector-curvature="0"
     style="fill:#b9c0fe" />
  <path
     d="m 113.69419,165.98935 a 27.917,27.917 0 1 1 -27.917009,27.92 27.917,27.917 0 0 1 27.917009,-27.92"
     id="path2052"
     inkscape:connector-curvature="0"
     style="fill:#ecf2ff" />
  <g
     clip-path="url(#b)"
     transform="translate(24.888181,37.389351)"
     id="g2056"
     style="fill:#bbcfff">
    <path
       d="m 77.278,153.343 -0.472,-1.818 9.975,-2.583 0.381,1.471 a 21.73,21.73 0 0 0 -1.838,4.918 26.209,26.209 0 0 0 -0.852,5.917 20.55,20.55 0 0 0 0.372,4.423 l -1.944,0.5 a 19.5,19.5 0 0 1 -0.424,-4.578 23.891,23.891 0 0 1 0.675,-5.475 21.994,21.994 0 0 1 1.673,-4.734 z m 14.268,6.287 1.942,-0.683 a 3.68,3.68 0 0 0 1.59,1.916 2.876,2.876 0 0 0 2.129,0.228 3.117,3.117 0 0 0 2.045,-1.629 4.007,4.007 0 0 0 0.238,-2.977 3.624,3.624 0 0 0 -1.57,-2.319 3.272,3.272 0 0 0 -2.623,-0.319 3.409,3.409 0 0 0 -1.543,0.842 3.308,3.308 0 0 0 -0.877,1.377 l -1.836,0.229 -0.558,-8.3 7.663,-1.984 0.468,1.808 -6.148,1.592 0.241,4.356 a 5.182,5.182 0 0 1 2.661,-1.721 4.764,4.764 0 0 1 3.769,0.517 5.047,5.047 0 0 1 2.317,3.235 5.8,5.8 0 0 1 -0.283,3.932 5.044,5.044 0 0 1 -3.562,2.918 5.149,5.149 0 0 1 -3.736,-0.288 4.747,4.747 0 0 1 -2.327,-2.73 z"
       id="path2054"
       inkscape:connector-curvature="0" />
  </g>
  <path
     d="m 137.32219,60.089351 a 1.65,1.65 0 1 1 -1.649,1.65 1.65,1.65 0 0 1 1.649,-1.65"
     id="path2058"
     inkscape:connector-curvature="0"
     style="fill:#e6e6e6" />
  <circle
     cx="137.32217"
     cy="61.738354"
     r="1.65"
     stroke-miterlimit="10"
     id="circle2060"
     style="fill:none;stroke:#acb2c6;stroke-miterlimit:10" />
  <path
     d="m 146.20719,57.576351 a 1.65,1.65 0 1 1 -1.65,1.65 1.65,1.65 0 0 1 1.65,-1.65"
     id="path2062"
     inkscape:connector-curvature="0"
     style="fill:#e6e6e6" />
  <circle
     cx="146.20717"
     cy="59.226353"
     r="1.65"
     stroke-miterlimit="10"
     id="circle2064"
     style="fill:none;stroke:#acb2c6;stroke-miterlimit:10" />
  <path
     d="m 84.693181,73.794351 a 1.65,1.65 0 1 1 -1.649,1.65 1.65,1.65 0 0 1 1.649,-1.65"
     id="path2066"
     inkscape:connector-curvature="0"
     style="fill:#e6e6e6" />
  <circle
     cx="84.693184"
     cy="75.444351"
     r="1.65"
     stroke-miterlimit="10"
     id="circle2068"
     style="fill:none;stroke:#acb2c6;stroke-miterlimit:10" />
  <path
     d="m 93.175181,71.597351 a 1.65,1.65 0 1 1 -1.65,1.65 1.65,1.65 0 0 1 1.65,-1.65"
     id="path2070"
     inkscape:connector-curvature="0"
     style="fill:#e6e6e6" />
  <circle
     cx="93.174187"
     cy="73.247353"
     r="1.65"
     stroke-miterlimit="10"
     id="circle2072"
     style="fill:none;stroke:#acb2c6;stroke-miterlimit:10" />
  <path
     stroke-miterlimit="10"
     d="m 127.00519,58.556351 34.714,-8.493 a 35.729,35.729 0 0 1 12.488,-1.448 c 6.271,0.568 11.326,2.791 15.188,16.681 3.862,13.89 71.94,278.587999 71.94,278.587999 0,0 1.429,16.875 -8.134,20.038 -9.563,3.163 -111.886,29.767 -111.886,29.767 0,0 -22.926,9.07 -28.744,-12.5 -5.818,-21.57 -68.100009,-278.333 -68.100009,-278.333 0,0 -5.963,-19.185999 10.952,-23.818999 16.915,-4.633 71.582009,-20.481 71.582009,-20.481 z"
     id="path2074"
     inkscape:connector-curvature="0"
     style="fill:none;stroke:#6884af;stroke-miterlimit:10" />
  <path
     d="m 70.050181,73.444351 c 0,0 1.365,10.925 14.073,7.516 12.708,-3.409 64.100009,-18.025 64.100009,-18.025 0,0 8.968,-0.913 5.639,-12.434 z"
     id="path2076"
     inkscape:connector-curvature="0"
     style="fill:#d3ddea" />
  <path
     stroke-miterlimit="10"
     d="m 70.505181,75.220351 c 0,0 2.318,7.184 8.728,7.333 6.41,0.149 15.564,-3.547 22.068009,-5.374 6.504,-1.827 37.364,-10.55 37.364,-10.55 0,0 10.875,-2.811 12.07,-3.672 1.195,-0.861 2.916,-2.434 3.292,-4.045 a 12.722,12.722 0 0 0 -0.07,-7.212"
     id="path2078"
     inkscape:connector-curvature="0"
     style="fill:none;stroke:#799abf;stroke-miterlimit:10" />
  <g
     clip-path="url(#c)"
     transform="translate(24.888181,37.389351)"
     id="g2084"
     style="opacity:0.5">
    <g
       clip-path="url(#d)"
       id="g2082">
      <path
         d="M 109.917,240.433 115.326,11.464 5.409,4.342 0,233.311 Z"
         id="path2080"
         inkscape:connector-curvature="0"
         style="fill:url(#e)" />
    </g>
  </g>
  <ellipse
     cx="79.110184"
     cy="75.689354"
     stroke-miterlimit="10"
     rx="1.915"
     ry="1.887"
     id="ellipse2086"
     style="fill:none;stroke:#748aaa;stroke-miterlimit:10" />
  <ellipse
     cx="90.786186"
     cy="72.801353"
     stroke-miterlimit="10"
     rx="1.914"
     ry="1.887"
     id="ellipse2088"
     style="fill:none;stroke:#748aaa;stroke-miterlimit:10" />
  <ellipse
     cx="137.13518"
     cy="59.075352"
     stroke-miterlimit="10"
     rx="1.915"
     ry="1.887"
     id="ellipse2090"
     style="fill:none;stroke:#748aaa;stroke-miterlimit:10" />
  <ellipse
     cx="149.04317"
     cy="56.074348"
     stroke-miterlimit="10"
     rx="1.915"
     ry="1.887"
     id="ellipse2092"
     style="fill:none;stroke:#748aaa;stroke-miterlimit:10" />
  <path
     stroke-miterlimit="10"
     d="m 106.86119,67.954349 14.4,-3.842002"
     id="path2094"
     inkscape:connector-curvature="0"
     style="fill:none;stroke:#748aaa;stroke-miterlimit:10" />
  <path
     d="M 32.42118,37.389351 H 310.62919 V 439.25135 H 32.42118 Z"
     id="path2096"
     inkscape:connector-curvature="0"
     style="fill:none" />
</svg>
