<svg xmlns="http://www.w3.org/2000/svg" width="615.73926" height="737.40546" enable-background="new 0 0 556 683"><defs><filter id="a" width="1.297851" height="1.2370582" x="-.1489255" y="-.11852908" color-interpolation-filters="sRGB"><feGaussianBlur stdDeviation="29.439462"/></filter></defs><path fill="#716f6f" d="M81.164607 583.63171c-6.043-4.722-12.965-13.469-9.65-27.862 6.023-25.879 113.935003-464.832998 113.935003-464.832998s4.469-20.282 22.948-20.282c2.344.015 4.677.306 6.952.865 14.402 3.44 64.931 16.278 64.931 16.278l.303 2.517v.7l243.358 58.929998c14.842 3.64 23.941 18.51 20.366 33.284l-113.339 462.493c-3.063 12.333-14.185 21.007-26.966 21.029-2.198.001-4.387-.261-6.521-.777l-301.426003-72.983c-5.857-1.417-11.085-4.704-14.881-9.358" filter="url(#a)" opacity=".34000011"/><path fill="#cdddf7" d="M379.00961 611.09071c-2.247 0-4.487-.268-6.67-.8l-280.050003-68.22c-15.18-3.746-24.486-19.048-20.83-34.25L172.33961 93.650712c3.133-12.691 14.508-21.617 27.58-21.64 2.247-.001 4.487.268 6.67.8l280.06 68.219998c15.18 3.746 24.486 19.048 20.83 34.25l-100.89 414.18c-3.133 12.691-14.508 21.617-27.58 21.64m-187.52-563.999998c-13.072.023-24.447 8.949-27.58 21.64L47.989607 544.60071c-3.662 15.206 5.652 30.513 20.84 34.25l308.290003 75.1c2.183.532 4.423.801 6.67.8 13.072-.023 24.447-8.949 27.58-21.64l115.93-475.91c3.656-15.202-5.65-30.504-20.83-34.25l-248.89-60.589998-59.41-14.51c-2.183-.532-4.423-.801-6.67-.8"/><path fill="#c6d8f9" d="M199.91961 72.020712c-13.072.023-24.447 8.949-27.58 21.64L71.449607 507.82071c-3.656 15.202 5.65 30.504 20.83 34.25l280.060003 68.22c2.183.532 4.423.8 6.67.8 13.072-.023 24.447-8.949 27.58-21.64l100.89-414.16c3.656-15.202-5.65-30.504-20.83-34.25l-280.06-68.219998c-2.184-.532-4.423-.801-6.67-.8"/><path fill="#fff" d="M410.41961 629.93071c-3.746 15.18-19.048 24.486-34.25 20.83l-308.290003-75.09c-15.18-3.746-24.486-19.048-20.83-34.25L162.96961 65.500712c3.746-15.18 19.048-24.486 34.25-20.83l308.29 75.099998c15.18 3.746 24.486 19.048 20.83 34.25z"/><path fill="#f6faff" d="M69.508152 533.38949L182.2389 70.655273l327.43891 79.770267-112.73074 462.73421z"/><path fill="#ecf2ff" d="M260.18961 62.610712s9.87 210.349998 60.45 315.359998c50.58 105.01 98.41 215.06 98.41 215.06l-9.78 40.14s-8.46 23.93-35.24 17.17c-22.91-5.79-34.39-8.14-34.39-8.14l-275.600003-67.38s-23.31-8.72-17.65-33.27c6.14-26.63 116.510003-478.319998 116.510003-478.319998s5.69-25.94 30.57-20c14.73 3.54 66.41 16.75 66.41 16.75z"/><path fill="#d9bbf4" d="M100.72961 405.13071l63.92-71.84s23.08-22.1 53.08-19.1 40.4 13.46 64.24 51.86c19.05 30.7 80.75 121.5 143.94 126l-29.33 120.46-326.460003-79.52z" enable-background="new"/><path fill="#6f92ff" d="M70.119607 532.99071l326.460003 79.52.31-1.29 103.4-424.48c-21.38-5.21-183.13 259.54-189.56 265.29-6.43 5.75-10.44 12.24-17.29 17.74-17.76 14.25-36.43 13-54-1.2-6.85-5.52-15.76-43.49-16.88-52.09-.9-6.93-11.89-59-20.26-100.39-1.24-6.11-19.61-87.73-26.3-98.5-7.12-11.45-11-15.41-24.49-18.69" opacity=".5"/><path fill="#fff" d="M395.72961 561.04071l-290.23-70.68c-.276-.066-.554.104-.62.38-.066.276.104.554.38.62l290.18 70.69c.276.066.554-.104.62-.38.066-.276-.104-.554-.38-.62m10.18-41.79l-290.18-70.68c-.276-.066-.554.104-.62.38-.066.276.104.554.38.62l290.18 70.69c.276.066.554-.104.62-.38.066-.276-.104-.554-.38-.62m13.8-45.38l-290.19-70.69c-.276-.066-.554.104-.62.38-.066.276.104.554.38.62l290.19 70.66c.276.066.554-.104.62-.38.066-.276-.104-.554-.38-.62m10.42-42.78l-290.18-70.72c-.276-.066-.554.104-.62.38-.066.276.104.554.38.62l290.18 70.68c.276.066.554-.104.62-.38.066-.276-.104-.554-.38-.62m10.24-41.99l-290.18-70.69c-.276-.066-.554.104-.62.38-.066.276.104.554.38.62l290.18 70.69c.276.066.554-.104.62-.38.066-.276-.104-.554-.38-.62m10.1-41.45l-290.18-70.69c-.276-.066-.554.104-.62.38-.066.276.104.554.38.62l290.18 70.68c.276.066.554-.104.62-.38.066-.276-.104-.554-.38-.62m14.66-43.23l-290.18-70.72c-.276-.066-.554.104-.62.38-.066.276.104.554.38.62l290.18 70.69c.276.066.554-.104.62-.38.066-.276-.104-.554-.38-.62"/><path fill="#fff" d="M152.05164 293.92983l18.81765-77.2422 153.5128 37.3986-18.81765 77.2422z"/><path fill="#cfdbe7" d="M254.72961 258.53071c-.522 2.181-2.712 3.526-4.893 3.004-.006-.001-.011-.003-.017-.004l-60-14.61c-2.182-.53-3.52-2.728-2.99-4.91.53-2.182 2.728-3.52 4.91-2.99l60 14.61c2.178.528 3.516 2.721 2.99 4.9zm-12.69 16.83c-.518 2.112-2.648 3.405-4.76 2.89l-51.13-12.46c-2.134-.424-3.521-2.497-3.097-4.632.424-2.134 2.497-3.521 4.632-3.097.11.022.218.048.326.079l51.13 12.46c2.115.513 3.413 2.643 2.901 4.757-.002.001-.002.002-.002.003zm47.5 12.64c-.497 2.045-2.558 3.299-4.602 2.802-.003-.001-.005-.001-.008-.002l-33.64-8.2c-2.046-.497-3.302-2.559-2.805-4.605.497-2.046 2.559-3.302 4.605-2.805l33.64 8.17c2.047.488 3.31 2.543 2.822 4.59-.004.017-.008.033-.012.05zm-93.66-7.95c-.438 1.809-2.259 2.921-4.068 2.483l-.012-.003-9.72-2.37c-1.79-.528-2.813-2.408-2.285-4.198.493-1.671 2.175-2.693 3.885-2.362l9.72 2.37c1.809.438 2.921 2.259 2.483 4.068zm85.43 21.64c-.547 2.247-2.812 3.626-5.06 3.08l-70.52-17.19c-2.248-.552-3.622-2.822-3.07-5.07s2.822-3.622 5.07-3.07l70.56 17.19c2.223.574 3.569 2.831 3.02 5.06z"/><path fill="#fff" d="M125.81278 402.94389l20.74439-85.15102 153.5128 37.3986-20.74439 85.15102z"/><path fill="#cfdbe7" d="M207.03961 347.79071c-.522 2.181-2.712 3.526-4.893 3.004-.006-.001-.011-.003-.017-.004l-33-8c-2.182-.53-3.52-2.728-2.99-4.91.53-2.182 2.728-3.52 4.91-2.99l33 8c2.178.528 3.516 2.721 2.99 4.9zm6.04 15.34c-.51 2.09-2.34 3.45-4.08 3l-43.84-10.68c-1.74-.42-2.74-2.47-2.23-4.56.51-2.09 2.34-3.45 4.08-3l43.84 10.68c1.74.42 2.74 2.46 2.23 4.56z"/><path fill="#afceff" d="M160.20961 394.28071c-.552 2.248-2.822 3.622-5.07 3.07s-3.622-2.822-3.07-5.07l3.76-15.42c.552-2.248 2.822-3.622 5.07-3.07s3.622 2.822 3.07 5.07zm15.91 3.88c-.552 2.248-2.822 3.622-5.07 3.07s-3.622-2.822-3.07-5.07l5.33-21.8c.552-2.248 2.822-3.622 5.07-3.07s3.622 2.822 3.07 5.07zm15.54 4.88c-.492 2.013-2.522 3.247-4.535 2.755-2.013-.492-3.247-2.522-2.755-4.535l3.87-15.9c.489-2.013 2.517-3.249 4.53-2.76 2.013.489 3.249 2.517 2.76 4.53zm17.07 3.77c-.552 2.209-2.791 3.552-5 3s-3.552-2.791-3-5l7-28.78c.552-2.209 2.791-3.552 5-3s3.552 2.791 3 5zm16.49 4.72c-.387 1.86-2.209 3.054-4.069 2.667-1.86-.387-3.054-2.209-2.667-4.069.016-.077.035-.153.056-.228l9.11-37.41c.387-1.86 2.209-3.054 4.069-2.667 1.86.387 3.054 2.209 2.667 4.069-.016.077-.035.153-.056.228zm16.18 3.3c-.53 2.182-2.728 3.52-4.91 2.99-2.182-.53-3.52-2.728-2.99-4.91l6.86-28.18c.53-2.179 2.726-3.515 4.905-2.985 2.179.53 3.515 2.726 2.985 4.905zm15.33 5.85c-.442 1.811-2.269 2.922-4.08 2.48-1.811-.442-2.922-2.268-2.48-4.08l5.56-23.07c.528-1.79 2.408-2.813 4.198-2.285 1.671.493 2.693 2.175 2.362 3.885z"/><path fill="#fff" d="M98.502901 508.1948l22.029669-90.42681 153.5128 37.3986-22.02967 90.42681z"/><path fill="#cfdbe7" d="M183.80961 453.49071c-.523 2.145-2.685 3.461-4.83 2.94l-34.13-8.31c-2.11-.653-3.292-2.893-2.639-5.003.596-1.927 2.533-3.109 4.519-2.757l34.13 8.31c2.144.518 3.464 2.675 2.95 4.82zm4.7 13.43c-.518 2.112-2.648 3.405-4.76 2.89l-41.78-10.18c-2.091-.604-3.296-2.788-2.693-4.878.568-1.966 2.546-3.17 4.553-2.772l41.78 10.18c2.115.513 3.413 2.643 2.901 4.758-.001 0-.001.001-.001.002z"/><path fill="#d5c4f1" d="M135.36961 502.36071c-.5 2.046-2.564 3.3-4.61 2.8-2.046-.5-3.3-2.564-2.8-4.61l3.7-15.19c.5-2.046 2.564-3.3 4.61-2.8 2.046.5 3.3 2.564 2.8 4.61zm15.71 3.62c-.585 2.13-2.786 3.383-4.916 2.798-2.043-.561-3.294-2.616-2.854-4.688l5.12-21c.585-2.13 2.786-3.383 4.916-2.798 2.043.561 3.294 2.616 2.854 4.688zm15.73 5.12c-.395 2.106-2.423 3.493-4.529 3.097-2.106-.395-3.493-2.423-3.097-4.529.025-.134.058-.267.097-.398l3.64-14.91c.395-2.106 2.423-3.493 4.529-3.097 2.106.395 3.493 2.423 3.097 4.529-.025.134-.058.267-.097.398zm16.87 3.66c-.476 2.332-2.753 3.837-5.085 3.36-2.332-.477-3.837-2.753-3.36-5.085.019-.092.041-.184.066-.275l7-28.66c.476-2.332 2.753-3.837 5.085-3.36 2.332.477 3.837 2.753 3.36 5.085-.019.092-.041.184-.066.275zm16.73 5.23c-.604 2.091-2.788 3.296-4.878 2.692-1.966-.568-3.17-2.545-2.772-4.552l8.67-35.58c.604-2.091 2.788-3.296 4.878-2.692 1.966.568 3.17 2.545 2.772 4.552zm16.26 3c-.552 2.209-2.791 3.552-5 3s-3.552-2.791-3-5l6.83-28.06c.552-2.209 2.791-3.552 5-3s3.552 2.791 3 5zm15.38 4.97c-.483 1.98-2.48 3.193-4.46 2.71-1.98-.483-3.193-2.48-2.71-4.46l9.62-39.47c.436-1.991 2.403-3.252 4.393-2.816 1.99.436 3.252 2.403 2.816 4.393-.012.054-.025.109-.039.163z"/><path fill="#fff" d="M170.69735 178.27895l18.936-77.728 301.196 73.377-18.936 77.728z"/><path fill="#dee7ef" d="M403.40961 177.57071c-.611 2.523-3.152 4.072-5.674 3.461-.002 0-.004-.001-.006-.001l-65.35-15.92c-2.524-.616-4.071-3.161-3.455-5.685.616-2.524 3.161-4.071 5.685-3.455l65.35 15.92c2.521.616 4.065 3.159 3.45 5.68zm56.03 30.16c-.523 2.145-2.685 3.461-4.83 2.94l-89.31-21.75c-2.13-.585-3.383-2.786-2.798-4.916.561-2.043 2.617-3.294 4.689-2.854l89.3 21.75c2.148.518 3.469 2.679 2.951 4.826-.002.001-.002.003-.002.004zm-11.92 13.05c-.523 2.145-2.685 3.461-4.83 2.94l-70.96-17.28c-2.13-.585-3.383-2.786-2.798-4.916.561-2.043 2.617-3.294 4.689-2.854l70.93 17.28c2.15.507 3.482 2.662 2.974 4.812-.002.006-.004.012-.005.018z"/><path fill="#cfdbe7" d="M278.72961 145.82071c-.44 1.81-2.53 2.86-4.66 2.34l-63-15.33c-2.13-.52-3.51-2.41-3.06-4.22.45-1.81 2.53-2.86 4.66-2.34l63 15.33c2.06.52 3.48 2.41 3.06 4.22z"/><path fill="#dee7ef" d="M273.88961 148.12071l4.54 1.1 36.59 8.91c1.898.088 3.508-1.379 3.595-3.277.065-1.398-.724-2.696-1.995-3.283l-36.59-8.91-6.8-1.66z"/><path fill="#cfdbe7" d="M339.44961 176.49071c-.44 1.81-2.53 2.86-4.66 2.34l-63-15.34c-2.13-.52-3.51-2.41-3.06-4.22.45-1.81 2.53-2.86 4.66-2.34l63 15.33c2.13.53 3.51 2.42 3.06 4.23z"/><path fill="#dee7ef" d="M285.27961 166.77071l7.59 1.85 61.27 14.92c2.51.61 4.9-.36 5.34-2.17.44-1.81-1.24-3.78-3.75-4.39l-61.25-14.92-11.39-2.77z"/><path fill="#cfdbe7" d="M317.41961 187.59071c-.44 1.81-2.53 2.86-4.66 2.34l-63-15.33c-2.13-.52-3.51-2.41-3.06-4.22.45-1.81 2.53-2.86 4.66-2.34l63 15.33c2.13.52 3.51 2.41 3.06 4.22z"/><path fill="#dee7ef" d="M292.48961 184.99071l7.59 1.85 61.27 14.92c2.51.61 4.9-.36 5.34-2.17.44-1.81-1.24-3.77-3.75-4.39l-61.21-14.92-11.39-2.78z"/><path fill="#cfdbe7" d="M264.28961 156.77071c-.434 1.777-2.22 2.87-4 2.45l-53.92-13.13c-1.789-.436-2.886-2.241-2.45-4.03.436-1.789 2.241-2.886 4.03-2.45l53.92 13.13c1.779.447 2.861 2.249 2.42 4.03zm-22.27 10.44c-.449 1.833-2.297 2.956-4.13 2.51l-34.32-8.36c-1.851-.376-3.047-2.181-2.672-4.032s2.181-3.047 4.032-2.672c.087.018.174.039.26.063l34.33 8.36c1.828.454 2.946 2.301 2.5 4.131z"/><path fill="#597a9b" d="M347.40961 96.750712c.637-.41 1.373-.638 2.13-.66 1.254.04 2.381.777 2.92 1.91.078.195.299.29.494.212.195-.078.29-.299.212-.494-.016-.039-.038-.076-.066-.108-.683-1.347-2.05-2.211-3.56-2.25-.915.02-1.806.297-2.57.8-.146.151-.141.392.01.537.112.108.278.137.42.073z"/><path fill="#546b82" d="M349.52961 94.500712v.5c2.209-.009 4.008 1.774 4.017 3.983.009 2.208998-1.774 4.007998-3.983 4.016998-2.209.009-4.008-1.774-4.017-3.982998-.005-1.072.422-2.102 1.183-2.857.748-.748 1.762-1.168 2.82-1.17v-1c-2.761 0-5 2.239-5 5 0 2.760998 2.239 4.999998 5 4.999998s5-2.239 5-4.999998c0-2.761-2.239-5-5-5z"/><path fill="#a8adb2" d="M226.85961 581.67071v1c5.318.001 9.63 4.313 9.629 9.631-.001 5.319-4.313 9.63-9.631 9.629-5.318-.001-9.63-4.313-9.629-9.631 0-2.554 1.015-5.003 2.821-6.809 1.804-1.81 4.255-2.825 6.81-2.82v-2c-6.418 0-11.62 5.203-11.62 11.62 0 6.418 5.202 11.62 11.62 11.62 6.414 0 11.614-5.196 11.62-11.61-.006-6.415-5.205-11.615-11.62-11.62z"/><path fill="#7b93a8" d="M182.10961 70.360712l-.12.49 326.94 79.649998-112.49 461.75-326.450003-79.53L182.59961 70.480712l-.49-.12-.12.49.12-.49-.49-.12L68.779607 533.45071l328.400003 80.01 112.96-463.7-328.4-79.999998-.12.48z"/></svg>