<svg xmlns="http://www.w3.org/2000/svg" xmlns:xlink="http://www.w3.org/1999/xlink" viewBox="0 0 1920 833.8"><defs><path id="a" d="M0 0h1920v833.8H0z"/></defs><clipPath id="c"><use overflow="visible" xlink:href="#a"/></clipPath><radialGradient id="b" cx="1126.3053" cy="-257.7268" r="435.7091" gradientTransform="matrix(1.698 0 0 .5094 -888.4163 420.636)" gradientUnits="userSpaceOnUse"><stop offset="0" stop-color="#ccc"/><stop offset="1" stop-color="#ccc" stop-opacity="0"/></radialGradient><path fill="url(#b)" d="M104.6 56.1h1838.9v466.5H104.6z" clip-path="url(#c)"/><defs><path id="d" d="M0 0h1920v833.8H0z"/></defs><clipPath id="f"><use overflow="visible" xlink:href="#d"/></clipPath><linearGradient id="e" x1="-415.2" x2="1779" y1="1.8626" y2="1.8626" gradientTransform="translate(0 354)" gradientUnits="userSpaceOnUse"><stop offset=".1949" stop-color="#fe8ec3"/><stop offset=".5764" stop-color="#b263fc"/><stop offset="1" stop-color="#5ca9ff"/></linearGradient><path fill="url(#e)" d="M1779-122c-454.2-3-457.8 458.9-703 488-113.8 13.5-201.3-57.3-322-35-250.7 46.4-237.9 437-577 493C-490.9 934.3-406 72.9-415.2-.3v-119.1c.1 0 1242-2.6 2194.2-2.6z" clip-path="url(#f)" opacity=".49"/><defs><path id="g" d="M0 0h1920v833.8H0z"/></defs><clipPath id="i"><use overflow="visible" xlink:href="#g"/></clipPath><linearGradient id="h" x1="-415.2" x2="1779" y1="-17.4191" y2="-17.4191" gradientTransform="translate(0 354)" gradientUnits="userSpaceOnUse"><stop offset=".1128" stop-color="#fe8ec3"/><stop offset=".5867" stop-color="#b263fc"/><stop offset="1" stop-color="#5ca9ff"/></linearGradient><path fill="url(#h)" d="M1779-122c-412.2 0-454.3 414.4-716 457-113.1 18.4-188.3-35.3-309-13-250.7 46.4-236.9 407-576 463C-489.9 895.3-406 72.9-415.2-.3v-119.1c.1 0 1242-2.6 2194.2-2.6z" clip-path="url(#i)"/></svg>