<svg xmlns="http://www.w3.org/2000/svg" viewBox="0 0 37.873 19.185"><title>SBS_logo</title><path d="M.921,15.348h9.672a1.92,1.92,0,0,0,1.357-.562l0,0a1.913,1.913,0,0,0,0-2.711l0,0a1.913,1.913,0,0,0-1.354-.564H5.755A5.741,5.741,0,0,1,1.69,9.821l0,0A5.752,5.752,0,0,1,5.755,0h5.1V3.837h-5.1A1.918,1.918,0,0,0,4.4,7.108H4.4a1.913,1.913,0,0,0,1.352.565h4.837a5.739,5.739,0,0,1,4.066,1.689V9.37a5.788,5.788,0,0,1,1.357,2.141h6.431a1.913,1.913,0,0,1,1.354.564l0,0a1.922,1.922,0,0,1-1.357,3.276H16.018A5.776,5.776,0,0,1,14.659,17.5h-.007a5.733,5.733,0,0,1-4.059,1.689H.921Zm26.951,0h4.246a1.922,1.922,0,0,0,1.357-.562l0,0a1.913,1.913,0,0,0,0-2.711l0,0a1.912,1.912,0,0,0-1.353-.564H27.281a5.741,5.741,0,0,1-4.065-1.69l0,0a5.814,5.814,0,0,1-1.361-2.144H14.694V3.837h7.162a5.782,5.782,0,0,1,1.359-2.148l0,0A5.74,5.74,0,0,1,27.281,0h8.674V3.837H27.281a1.907,1.907,0,0,0-1.353.558V4.4a1.911,1.911,0,0,0-.007,2.707h.007a1.914,1.914,0,0,0,1.353.565h4.837a5.739,5.739,0,0,1,4.066,1.689V9.37a5.731,5.731,0,0,1,0,8.126h-.007a5.731,5.731,0,0,1-4.059,1.689H22.447a5.776,5.776,0,0,0,5.425-3.837Z" fill="#fff" fill-rule="evenodd"/></svg>