<?xml version="1.0" encoding="utf-8"?>
<!-- Generator: Adobe Illustrator 21.1.0, SVG Export Plug-In . SVG Version: 6.00 Build 0)  -->
<svg version="1.1" id="Слой_1" xmlns="http://www.w3.org/2000/svg" xmlns:xlink="http://www.w3.org/1999/xlink" x="0px" y="0px"
	 viewBox="0 0 183.1 75" style="enable-background:new 0 0 183.1 75;" xml:space="preserve">
<style type="text/css">
	.st0{fill:#4E50CF;}
</style>
<title>SBS_logo</title>
<g id="Слой_2">
	<g id="Слой_1-2">
		<path class="st0" d="M26.9,75C15.8,75,7.3,72.6,0,65.3L9.3,56c4.7,4.7,11,6.2,17.7,6.2c8.6,0,13.2-3.3,13.2-9.2
			c0.1-2.3-0.7-4.5-2.3-6.1c-1.5-1.3-2.9-2-6.6-2.5L22.5,43c-6.5-0.9-11-2.9-14.3-6.1c-3.5-3.4-5.3-8.3-5.3-14.5
			C2.9,9.2,12.6,0,28.6,0c10.2,0,17.5,2.5,23.8,8.6l-9.1,9c-4.6-4.4-10.3-5.1-15.1-5.1c-7.7,0-11.3,4.2-11.3,9.3
			c-0.1,2,0.7,3.9,2.1,5.3c1.9,1.6,4.3,2.6,6.7,2.8l8.8,1.4c6.7,0.9,10.9,2.7,14.1,5.8c3.9,3.6,5.7,8.9,5.7,15.5
			C54.3,66.9,42.5,75,26.9,75z"/>
		<path class="st0" d="M98.7,74.4H67.8V0.6h29.6c14.4,0,22.8,8.1,22.8,20.7c0.1,6.4-3.5,12.3-9.1,15.2c4.4,2.1,10.2,6.7,10.2,16.6
			C121.3,66.9,111.9,74.4,98.7,74.4z M96.3,13.5h-14v17h14.1c6.1,0,9.5-3.4,9.5-8.5S102.4,13.5,96.3,13.5z M97.3,43.4h-15v18.1h15
			c6.5,0,9.6-4.1,9.6-9.1S103.8,43.4,97.3,43.4L97.3,43.4z"/>
		<path class="st0" d="M155.8,75c-11.2,0-19.7-2.4-26.9-9.7l9.3-9.3c4.7,4.7,11,6.2,17.7,6.2c8.6,0,13.2-3.3,13.2-9.2
			c0.1-2.3-0.7-4.5-2.3-6.1c-1.4-1.3-2.9-2-6.6-2.5l-8.8-1.3c-6.5-0.9-11-2.9-14.3-6.1c-3.5-3.4-5.3-8.3-5.3-14.5
			c0-13.2,9.7-22.4,25.7-22.4c10.2,0,17.6,2.5,23.8,8.6l-9.1,9c-4.6-4.4-10.3-5.1-15.1-5.1c-7.7,0-11.3,4.3-11.3,9.3
			c-0.1,2,0.7,3.9,2.1,5.3c1.9,1.6,4.3,2.6,6.7,2.8l8.8,1.4c6.7,0.9,10.9,2.7,14.1,5.8c3.9,3.6,5.7,8.9,5.7,15.5
			C183.1,66.9,171.3,75,155.8,75z"/>
	</g>
</g>
</svg>
