<svg xmlns="http://www.w3.org/2000/svg" viewBox="0 0 64.798 19.185"><title>SBS_logo_main</title><path d="M.921,15.348h9.672a1.92,1.92,0,0,0,1.357-.562l0,0a1.913,1.913,0,0,0,0-2.711l0,0a1.913,1.913,0,0,0-1.354-.564H5.755A5.741,5.741,0,0,1,1.69,9.821l0,0A5.752,5.752,0,0,1,5.755,0h5.1V3.837h-5.1A1.918,1.918,0,0,0,4.4,7.108H4.4a1.913,1.913,0,0,0,1.352.565h4.837a5.739,5.739,0,0,1,4.066,1.689V9.37a5.788,5.788,0,0,1,1.357,2.141h6.431a1.913,1.913,0,0,1,1.354.564l0,0a1.922,1.922,0,0,1-1.357,3.276H16.018A5.776,5.776,0,0,1,14.659,17.5h-.007a5.733,5.733,0,0,1-4.059,1.689H.921ZM64.8,17.934a1.188,1.188,0,0,0-.172-.672,1.324,1.324,0,0,0-.6-.454l-.547-.234a.7.7,0,0,1-.305-.235.4.4,0,0,1-.063-.242.4.4,0,0,1,.422-.43.381.381,0,0,1,.289.125.514.514,0,0,1,.117.375h.813a1.2,1.2,0,0,0-.352-.915,1.343,1.343,0,0,0-1.759.031,1.18,1.18,0,0,0-.359.883,1.036,1.036,0,0,0,.133.563,1.322,1.322,0,0,0,.6.477l.547.242a.7.7,0,0,1,.32.234.515.515,0,0,1,.086.305.443.443,0,0,1-.117.328.474.474,0,0,1-.633-.008.533.533,0,0,1-.141-.391h-.821a1.254,1.254,0,0,0,.367.93,1.272,1.272,0,0,0,.907.336,1.187,1.187,0,0,0,.9-.336A1.248,1.248,0,0,0,64.8,17.934Zm-3.134,1.188v-2.97a1.22,1.22,0,0,0-.234-.892.9.9,0,0,0-.751-.321.818.818,0,0,0-.414.11.952.952,0,0,0-.273.258V15h-.8v4.12h.829V16.16c0-.321.18-.477.407-.477s.406.157.406.477v2.962Zm-3.987-2.064a3.178,3.178,0,0,1-.117,1.219.4.4,0,0,1-.641,0,3.167,3.167,0,0,1-.117-1.219,3.121,3.121,0,0,1,.117-1.212.385.385,0,0,1,.641,0A3.131,3.131,0,0,1,57.676,17.059Zm.829,0a3.157,3.157,0,0,0-.289-1.689,1.325,1.325,0,0,0-1.954,0,3.159,3.159,0,0,0-.289,1.689,3.159,3.159,0,0,0,.289,1.689,1.31,1.31,0,0,0,1.954,0A3.156,3.156,0,0,0,58.505,17.059Zm-3.182-2.58v-.915h-.915v.915Zm-.039,4.643v-4.01h-.829v4.01Zm-1.392,0V18.38c-.391,0-.586-.172-.586-.555v-2.08h.571v-.633h-.571V13.948h-.829v1.165h-.422v.633h.422v2.126a1.183,1.183,0,0,0,.414,1A1.527,1.527,0,0,0,53.893,19.122Zm-2.392,0V15h-.829v2.963c0,.32-.18.476-.407.476s-.407-.156-.407-.476V15H49.03v2.971a1.22,1.22,0,0,0,.235.891.9.9,0,0,0,.751.32.821.821,0,0,0,.414-.117.974.974,0,0,0,.282-.258v.313Zm-2.986,0V18.38a.492.492,0,0,1-.563-.555V13.556h-.829v4.315a1.163,1.163,0,0,0,.414,1A1.506,1.506,0,0,0,48.515,19.122ZM45.63,17.059a3.172,3.172,0,0,1-.117,1.219.4.4,0,0,1-.641,0,3.168,3.168,0,0,1-.117-1.219,3.121,3.121,0,0,1,.117-1.212.385.385,0,0,1,.641,0A3.126,3.126,0,0,1,45.63,17.059Zm.829,0a3.157,3.157,0,0,0-.289-1.689,1.325,1.325,0,0,0-1.954,0,3.156,3.156,0,0,0-.289,1.689,3.156,3.156,0,0,0,.289,1.689,1.31,1.31,0,0,0,1.954,0A3.157,3.157,0,0,0,46.459,17.059Zm-3.111.523c0-.938-.18-1.29-.844-1.563l-.657-.266c-.391-.156-.461-.3-.461-.751a.833.833,0,0,1,.149-.547.47.47,0,0,1,.375-.156.461.461,0,0,1,.391.164.921.921,0,0,1,.133.594h.876a1.59,1.59,0,0,0-.391-1.212,1.38,1.38,0,0,0-1-.336,1.4,1.4,0,0,0-.954.336,1.52,1.52,0,0,0-.454,1.18c0,.86.211,1.165.774,1.4l.665.274c.43.172.524.32.524.915a.891.891,0,0,1-.149.618.515.515,0,0,1-.422.156.529.529,0,0,1-.406-.149.885.885,0,0,1-.157-.626h-.875a1.539,1.539,0,0,0,.359,1.2,1.472,1.472,0,0,0,1.079.368,1.533,1.533,0,0,0,1.087-.368A1.586,1.586,0,0,0,43.347,17.582ZM60.475,8.991V8.185a1.217,1.217,0,0,0-1,.5V8.248h-.8v4.12h.829V9.7a.663.663,0,0,1,.688-.711Zm-3.3.946H56.3a1.7,1.7,0,0,1,.117-.852.4.4,0,0,1,.641,0A1.7,1.7,0,0,1,57.176,9.936Zm.829.61c0-.985-.055-1.7-.383-2.033a1.353,1.353,0,0,0-1.767,0,2.721,2.721,0,0,0-.383,1.79,2.708,2.708,0,0,0,.383,1.79,1.361,1.361,0,0,0,1.782.008,1.378,1.378,0,0,0,.352-.946H57.16a.627.627,0,0,1-.1.375.365.365,0,0,1-.313.156.374.374,0,0,1-.321-.164,2.216,2.216,0,0,1-.125-.977Zm-2.971,1.821v-.743c-.391,0-.586-.172-.586-.555V8.991h.57V8.357h-.57V7.193h-.829V8.357H53.2v.633h.422v2.126a1.183,1.183,0,0,0,.414,1A1.526,1.526,0,0,0,55.034,12.368Zm-2.213-1.188a1.185,1.185,0,0,0-.172-.672,1.321,1.321,0,0,0-.6-.454L51.5,9.819a.705.705,0,0,1-.305-.234.4.4,0,0,1-.062-.242.4.4,0,0,1,.422-.43.379.379,0,0,1,.289.125.513.513,0,0,1,.117.375h.813a1.2,1.2,0,0,0-.352-.915,1.343,1.343,0,0,0-1.759.031,1.18,1.18,0,0,0-.36.883,1.033,1.033,0,0,0,.133.563,1.319,1.319,0,0,0,.6.477l.547.243a.7.7,0,0,1,.321.234.517.517,0,0,1,.086.305.444.444,0,0,1-.117.328.474.474,0,0,1-.633-.008.532.532,0,0,1-.141-.391h-.821a1.255,1.255,0,0,0,.367.93,1.271,1.271,0,0,0,.906.336,1.188,1.188,0,0,0,.9-.336A1.249,1.249,0,0,0,52.822,11.179ZM48.96,10.3a3.173,3.173,0,0,1-.117,1.219.395.395,0,0,1-.641,0,3.171,3.171,0,0,1-.117-1.219A3.124,3.124,0,0,1,48.2,9.092a.385.385,0,0,1,.641,0A3.126,3.126,0,0,1,48.96,10.3Zm.829,0A3.155,3.155,0,0,0,49.5,8.615a1.325,1.325,0,0,0-1.954,0,3.156,3.156,0,0,0-.289,1.689,3.155,3.155,0,0,0,.289,1.688,1.309,1.309,0,0,0,1.954,0A3.154,3.154,0,0,0,49.789,10.3Zm-3.924,0a3.173,3.173,0,0,1-.117,1.219.395.395,0,0,1-.641,0,3.169,3.169,0,0,1-.117-1.219,3.122,3.122,0,0,1,.117-1.212.385.385,0,0,1,.641,0A3.126,3.126,0,0,1,45.865,10.3Zm.829,0A3.156,3.156,0,0,0,46.4,8.615a1.325,1.325,0,0,0-1.954,0A3.155,3.155,0,0,0,44.16,10.3a3.154,3.154,0,0,0,.289,1.688,1.309,1.309,0,0,0,1.954,0A3.155,3.155,0,0,0,46.693,10.3ZM42.605,8.342c0,.532-.18.758-.634.758h-.438V7.591h.438C42.425,7.591,42.605,7.795,42.605,8.342Zm.016,2.369c0,.649-.2.867-.665.867h-.422V9.843h.422C42.425,9.843,42.621,10.093,42.621,10.71Zm.876.063a1.465,1.465,0,0,0-.321-1.118,1.093,1.093,0,0,0-.3-.2.855.855,0,0,0,.289-.2,1.265,1.265,0,0,0,.321-.97,1.4,1.4,0,0,0-.352-1.141A1.407,1.407,0,0,0,42.05,6.8H40.658v5.566h1.384a1.448,1.448,0,0,0,1.094-.352A1.568,1.568,0,0,0,43.5,10.773Zm7.161-7.591h-.876A1.7,1.7,0,0,1,49.9,2.33a.395.395,0,0,1,.641,0A1.7,1.7,0,0,1,50.657,3.182Zm.829.61c0-.985-.055-1.7-.383-2.033a1.352,1.352,0,0,0-1.767,0,2.72,2.72,0,0,0-.383,1.79,2.708,2.708,0,0,0,.383,1.79,1.361,1.361,0,0,0,1.782.008A1.378,1.378,0,0,0,51.47,4.4h-.829a.625.625,0,0,1-.1.375.364.364,0,0,1-.312.156.374.374,0,0,1-.321-.164,2.212,2.212,0,0,1-.125-.977ZM48.538,5.613V4.87a.492.492,0,0,1-.563-.555V.047h-.829V4.362a1.162,1.162,0,0,0,.414,1A1.5,1.5,0,0,0,48.538,5.613ZM45.552,4.4c0,.336-.188.547-.438.547-.281,0-.43-.2-.43-.571a.689.689,0,0,1,.164-.461.565.565,0,0,1,.43-.125h.274Zm.829,1.212V2.705a1.3,1.3,0,0,0-.36-.97,1.191,1.191,0,0,0-.875-.305,1.28,1.28,0,0,0-.868.337,1.2,1.2,0,0,0-.352.891h.829a.526.526,0,0,1,.125-.383.345.345,0,0,1,.274-.117c.258,0,.4.172.4.477v.571h-.367a1.313,1.313,0,0,0-.946.281,1.2,1.2,0,0,0-.383.923,1.43,1.43,0,0,0,.25.923.92.92,0,0,0,.774.344.762.762,0,0,0,.469-.141,1.063,1.063,0,0,0,.25-.274v.352Zm-3.033-1.54c0-.938-.18-1.29-.844-1.564l-.657-.266c-.391-.156-.461-.3-.461-.75a.833.833,0,0,1,.149-.547A.469.469,0,0,1,41.909.79.46.46,0,0,1,42.3.954a.92.92,0,0,1,.133.594h.876A1.59,1.59,0,0,0,42.918.336a1.381,1.381,0,0,0-1-.336,1.4,1.4,0,0,0-.954.336,1.521,1.521,0,0,0-.454,1.181c0,.86.211,1.164.774,1.4l.665.274c.43.172.524.32.524.915a.89.89,0,0,1-.149.617.515.515,0,0,1-.422.156.529.529,0,0,1-.406-.148.884.884,0,0,1-.157-.625h-.875a1.54,1.54,0,0,0,.359,1.2,1.474,1.474,0,0,0,1.079.367A1.534,1.534,0,0,0,42.988,5.3,1.586,1.586,0,0,0,43.347,4.073ZM27.872,15.348h4.246a1.922,1.922,0,0,0,1.357-.562l0,0a1.913,1.913,0,0,0,0-2.711l0,0a1.912,1.912,0,0,0-1.353-.564H27.281a5.741,5.741,0,0,1-4.065-1.69l0,0a5.814,5.814,0,0,1-1.361-2.144H14.694V3.837h7.162a5.782,5.782,0,0,1,1.359-2.148l0,0A5.74,5.74,0,0,1,27.281,0h8.674V3.837H27.281a1.907,1.907,0,0,0-1.353.558V4.4a1.911,1.911,0,0,0-.007,2.707h.007a1.914,1.914,0,0,0,1.353.565h4.837a5.739,5.739,0,0,1,4.066,1.689V9.37a5.731,5.731,0,0,1,0,8.126h-.007a5.731,5.731,0,0,1-4.059,1.689H22.447a5.776,5.776,0,0,0,5.425-3.837Z" fill="#fff" fill-rule="evenodd"/></svg>